<?xml version="1.0" standalone="no"?>
<!DOCTYPE svg PUBLIC "-//W3C//DTD SVG 20010904//EN"
 "http://www.w3.org/TR/2001/REC-SVG-20010904/DTD/svg10.dtd">
<svg version="1.0" xmlns="http://www.w3.org/2000/svg"
 width="200.000000pt" height="200.000000pt" viewBox="0 0 200.000000 200.000000"
 preserveAspectRatio="xMidYMid meet">

<g transform="translate(0.000000,200.000000) scale(0.100000,-0.100000)"
fill="#000000" stroke="none">
<path d="M827 1709 c-336 -37 -622 -200 -729 -416 -31 -63 -33 -74 -33 -168 0
-91 3 -106 31 -165 95 -199 299 -335 604 -403 123 -27 404 -29 520 -5 l75 16
133 -131 132 -132 0 190 0 190 52 30 c65 38 176 146 209 205 47 81 62 144 56
233 -17 251 -272 466 -637 537 -119 23 -298 31 -413 19z m282 -59 c321 -33
590 -178 683 -369 64 -129 48 -263 -46 -382 -48 -61 -162 -152 -213 -171 l-33
-12 0 -135 0 -136 -94 94 -93 93 -79 -17 c-301 -63 -667 0 -890 153 -404 276
-231 719 332 853 150 35 282 44 433 29z"/>
</g>
</svg>
