<?xml version="1.0" standalone="no"?>
<!DOCTYPE svg PUBLIC "-//W3C//DTD SVG 20010904//EN"
 "http://www.w3.org/TR/2001/REC-SVG-20010904/DTD/svg10.dtd">
<svg version="1.0" xmlns="http://www.w3.org/2000/svg"
 width="880.000000pt" height="648.000000pt" viewBox="0 0 880.000000 648.000000"
 preserveAspectRatio="xMidYMid meet">

<g transform="translate(0.000000,648.000000) scale(0.100000,-0.100000)"
fill="#000000" stroke="none">
<path d="M2765 6060 c-417 -30 -836 -244 -1104 -563 -185 -221 -297 -451 -359
-736 -24 -115 -27 -144 -26 -336 1 -236 14 -345 69 -561 84 -328 255 -654 515
-979 123 -154 477 -511 680 -687 80 -69 307 -257 505 -418 198 -161 419 -344
490 -405 413 -357 663 -633 824 -911 l38 -65 45 78 c109 186 276 390 499 608
181 176 349 322 710 615 623 506 878 732 1103 978 470 516 701 983 757 1527
16 164 7 440 -20 563 -118 537 -479 972 -977 1176 -151 62 -277 93 -459 113
-133 15 -169 16 -281 5 -167 -17 -252 -35 -399 -83 -397 -132 -737 -424 -926
-797 l-53 -103 -44 88 c-24 48 -74 133 -110 188 -86 129 -290 336 -418 422
-318 216 -672 310 -1059 283z m269 -300 c444 -43 845 -319 1045 -720 27 -52
108 -238 181 -413 73 -175 136 -314 140 -310 4 4 23 46 42 93 251 601 278 661
360 783 175 259 475 465 779 536 204 48 383 51 580 11 264 -54 481 -171 675
-364 321 -321 443 -740 364 -1245 -52 -323 -203 -663 -430 -966 -250 -332
-550 -617 -1245 -1182 -611 -495 -811 -679 -1101 -1011 l-29 -33 -66 78 c-226
267 -481 498 -1144 1034 -754 611 -1104 972 -1340 1383 -258 450 -340 956
-223 1376 72 262 259 531 483 698 82 60 250 149 350 185 182 64 375 87 579 67z"/>
</g>
</svg>
