<?xml version="1.0" standalone="no"?>
<!DOCTYPE svg PUBLIC "-//W3C//DTD SVG 20010904//EN"
 "http://www.w3.org/TR/2001/REC-SVG-20010904/DTD/svg10.dtd">
<svg version="1.0" xmlns="http://www.w3.org/2000/svg"
 width="512.000000pt" height="512.000000pt" viewBox="0 0 512.000000 512.000000"
 preserveAspectRatio="xMidYMid meet">

<g transform="translate(0.000000,512.000000) scale(0.100000,-0.100000)"
fill="#000000" stroke="none">
<path d="M637 3040 c-87 -22 -145 -68 -188 -150 -23 -43 -24 -55 -27 -288 -4
-286 3 -326 71 -399 81 -87 83 -88 402 -88 268 0 282 1 320 22 62 33 121 103
139 164 22 74 23 482 1 556 -20 66 -80 134 -147 164 -51 23 -64 24 -293 26
-132 1 -257 -2 -278 -7z m495 -81 c64 -14 120 -65 137 -124 6 -24 11 -132 11
-266 0 -220 -1 -226 -25 -275 -18 -36 -37 -57 -67 -75 -42 -24 -46 -24 -293
-24 -239 0 -252 1 -291 22 -23 12 -53 39 -65 60 -23 37 -24 46 -27 287 -3 213
-1 256 13 293 20 52 67 91 126 102 66 13 420 13 481 0z"/>
<path d="M1112 2874 c-58 -40 5 -128 64 -89 32 20 32 68 2 89 -12 9 -27 16
-33 16 -6 0 -21 -7 -33 -16z"/>
<path d="M800 2800 c-154 -72 -196 -252 -87 -376 51 -58 105 -84 177 -84 99 0
188 58 226 149 25 59 15 157 -22 217 -61 99 -193 141 -294 94z m160 -82 c59
-31 82 -66 88 -130 3 -44 0 -59 -20 -87 -34 -51 -71 -73 -125 -78 -171 -14
-233 220 -78 297 52 26 81 25 135 -2z"/>
<path d="M2783 2913 c-9 -3 -13 -27 -13 -69 l0 -64 -45 0 c-34 0 -47 -5 -55
-19 -18 -34 -11 -40 43 -43 l52 -3 0 -106 c-1 -98 -3 -108 -30 -155 -23 -38
-30 -45 -33 -29 -8 47 -28 79 -80 124 l-55 49 21 30 c27 37 29 72 5 73 -38 3
-59 -4 -82 -24 -21 -20 -22 -28 -17 -79 5 -56 5 -59 -47 -135 -28 -43 -56 -77
-62 -76 -6 2 -11 58 -13 135 -2 119 -5 135 -24 155 -24 26 -64 29 -92 8 -10
-7 -38 -51 -62 -97 l-43 -83 -1 87 c0 76 -3 89 -19 98 -50 26 -51 23 -51 -166
0 -102 4 -183 10 -195 7 -12 21 -19 38 -19 26 0 29 4 39 63 15 84 47 166 86
218 l32 44 5 -140 c5 -151 15 -185 54 -185 43 0 97 62 181 205 9 15 15 13 53
-24 51 -50 57 -91 16 -117 -24 -16 -26 -16 -53 3 -20 15 -32 18 -44 11 -24
-13 -21 -44 5 -62 29 -20 120 -21 157 -1 33 16 77 65 86 95 9 29 25 24 25 -7
0 -16 9 -43 20 -60 36 -60 107 -55 149 10 l24 37 18 -30 c42 -69 128 -80 179
-23 l26 29 20 -31 c27 -42 83 -47 120 -10 l26 26 25 -26 c35 -34 90 -34 131 0
17 14 33 25 36 25 18 0 -1 -30 -63 -96 -99 -106 -126 -178 -81 -219 28 -26 98
-30 140 -8 58 30 80 87 80 211 l0 104 35 41 c34 39 66 97 99 180 14 34 18 37
54 37 l39 0 -14 -62 c-42 -180 50 -303 155 -206 12 12 22 16 22 10 0 -16 53
-42 85 -42 36 0 65 16 97 54 19 21 28 26 28 15 0 -26 47 -69 75 -69 14 0 37
11 51 25 30 30 38 31 31 5 -5 -18 0 -20 38 -20 l42 0 5 89 c4 66 12 103 31
145 14 31 30 56 35 56 6 0 11 -49 13 -108 4 -116 21 -162 59 -162 14 0 21 9
25 38 12 72 27 127 48 177 l22 50 5 -117 c6 -128 22 -169 70 -176 57 -9 89 21
103 96 9 44 -4 40 -28 -11 -11 -23 -27 -42 -35 -42 -28 0 -40 47 -40 167 0
133 -8 165 -45 174 -37 9 -50 -7 -87 -109 l-33 -92 -6 80 c-7 96 -14 113 -46
121 -32 8 -55 -13 -77 -76 -25 -70 -36 -71 -36 -3 0 64 -11 83 -47 83 -23 0
-23 -1 -23 -132 0 -110 -4 -140 -20 -175 -22 -49 -52 -57 -72 -20 -7 13 -14
81 -17 167 l-6 145 -32 3 c-20 2 -33 -1 -33 -8 0 -7 -8 -5 -22 4 -34 24 -82
20 -116 -9 -47 -39 -66 -96 -66 -201 -1 -117 -26 -154 -71 -104 -16 18 -17 34
-12 161 l7 142 -59 -6 c-55 -6 -59 -5 -69 18 -15 33 -60 44 -79 19 -9 -12 -12
-28 -7 -44 15 -55 8 -116 -21 -168 -51 -94 -55 -90 -55 56 0 117 -2 132 -18
141 -20 11 -62 4 -62 -10 0 -5 -15 1 -34 12 -43 25 -76 18 -116 -27 -42 -48
-64 -132 -56 -213 6 -69 -8 -101 -44 -101 -35 0 -40 21 -40 172 0 146 0 148
-25 164 -25 17 -61 12 -50 -6 10 -17 -4 -11 -25 10 -30 30 -65 35 -102 13 -49
-29 -79 -90 -85 -177 -7 -86 -36 -149 -71 -154 -34 -5 -42 32 -42 199 l0 149
55 0 c43 0 56 4 65 19 16 30 14 31 -50 31 l-60 0 0 60 c0 56 -2 60 -30 75 -16
8 -30 15 -32 14 -2 0 -9 -3 -15 -6z m372 -304 c17 -32 19 -117 5 -170 -12 -43
-46 -81 -68 -77 -43 8 -65 125 -41 211 21 76 74 95 104 36z m370 0 c17 -32 19
-117 5 -170 -12 -43 -46 -81 -68 -77 -43 8 -65 125 -41 211 21 76 74 95 104
36z m650 0 c17 -33 19 -118 4 -172 -11 -42 -41 -77 -64 -77 -40 0 -66 112 -46
198 22 89 74 114 106 51z m-619 -401 c-10 -83 -29 -126 -60 -134 -91 -22 -85
59 11 152 25 24 47 44 50 44 3 0 2 -28 -1 -62z"/>
<path d="M1859 2853 c-71 -67 -92 -111 -87 -186 4 -52 9 -64 37 -89 40 -36 53
-29 35 19 -26 75 -10 162 42 220 l33 38 1 -275 c0 -152 -4 -291 -10 -309 -5
-19 -8 -37 -5 -39 10 -10 53 29 71 65 17 34 19 67 22 306 2 196 0 272 -9 283
-6 8 -27 14 -46 14 -27 0 -45 -10 -84 -47z"/>
</g>
</svg>
