<?xml version="1.0" standalone="no"?>
<!DOCTYPE svg PUBLIC "-//W3C//DTD SVG 20010904//EN"
 "http://www.w3.org/TR/2001/REC-SVG-20010904/DTD/svg10.dtd">
<svg version="1.0" xmlns="http://www.w3.org/2000/svg"
 width="980.000000pt" height="982.000000pt" viewBox="0 0 980.000000 982.000000"
 preserveAspectRatio="xMidYMid meet">

<g transform="translate(0.000000,982.000000) scale(0.100000,-0.100000)"
fill="#000000" stroke="none">
<path d="M9365 9639 c-2960 -1228 -7580 -3154 -8765 -3654 -283 -120 -532
-224 -553 -233 -63 -26 -134 8 693 -328 289 -118 1158 -466 1932 -775 l1406
-562 660 -1651 c705 -1762 971 -2416 983 -2416 4 0 30 55 59 123 422 996 3285
7858 3841 9205 98 239 179 440 179 448 0 8 -6 14 -12 13 -7 0 -197 -77 -423
-170z m-1396 -1390 c-880 -890 -3035 -3037 -3424 -3411 -165 -159 -323 -307
-351 -329 l-52 -40 -249 97 c-532 207 -2830 1130 -2873 1154 -11 7 -3 14 35
30 672 290 2935 1245 5325 2247 854 358 2257 941 2269 943 2 0 -304 -311 -680
-691z m667 -290 c-314 -758 -1367 -3285 -1703 -4089 -332 -795 -834 -1986
-1008 -2390 -86 -201 -166 -386 -177 -412 -12 -27 -24 -48 -28 -48 -3 0 -30
57 -59 127 -232 566 -1106 2746 -1170 2920 l-30 81 28 39 c15 21 115 130 222
243 204 217 4200 4222 4206 4216 2 -2 -124 -311 -281 -687z"/>
</g>
</svg>
